<?xml version="1.0" standalone="no"?>
<!DOCTYPE svg PUBLIC "-//W3C//DTD SVG 20010904//EN"
 "http://www.w3.org/TR/2001/REC-SVG-20010904/DTD/svg10.dtd">
<svg version="1.0" xmlns="http://www.w3.org/2000/svg"
 width="400.000000pt" height="400.000000pt" viewBox="0 0 400.000000 400.000000"
 preserveAspectRatio="xMidYMid meet">
<metadata>
Created by potrace 1.11, written by Peter Selinger 2001-2013
</metadata>
<g transform="translate(0.000000,400.000000) scale(0.100000,-0.100000)"
fill="#000000" stroke="none">
<path d="M0 2000 l0 -2000 2000 0 2000 0 0 2000 0 2000 -2000 0 -2000 0 0
-2000z m3196 943 c-3 -10 -107 -425 -231 -923 -124 -498 -230 -922 -236 -942
l-10 -38 -480 0 c-453 0 -480 1 -475 18 3 9 39 154 81 322 42 168 80 322 86
343 l10 37 239 0 239 0 10 38 c6 20 69 273 141 562 72 289 135 542 141 563
l10 37 240 0 c224 0 240 -1 235 -17z"/>
</g>
</svg>
